<svg width="34" height="34" xmlns="http://www.w3.org/2000/svg" xmlns:xlink="http://www.w3.org/1999/xlink" overflow="hidden"><defs><clipPath id="clip0"><rect x="1041" y="470" width="34" height="34"/></clipPath><clipPath id="clip1"><rect x="1042" y="471" width="33" height="32"/></clipPath><clipPath id="clip2"><rect x="1042" y="471" width="33" height="32"/></clipPath><clipPath id="clip3"><rect x="1042" y="132" width="33" height="710"/></clipPath></defs><g clip-path="url(#clip0)" transform="translate(-1041 -470)"><g clip-path="url(#clip1)"><g clip-path="url(#clip2)"><g clip-path="url(#clip3)"><path d="M0 0.205613 32.5299 0.205613 32.5299 32.6925 0 32.6925Z" fill="#6B7685" transform="matrix(1.01445 0 0 1 1042 555.063)"/><path d="M24.3612 11.8709 11.2983 11.8709C10.3562 11.8709 9.59263 12.6345 9.59263 13.5778L9.59263 21.9491C9.59263 22.8924 10.3562 23.6547 11.2983 23.6547L15.2719 23.6547 17.8307 26.2142 20.3889 23.6547 24.363 23.6547C25.3052 23.6547 26.0687 22.8924 26.0687 21.9491L26.0687 13.5778C26.0687 12.6345 25.3052 11.8709 24.3612 11.8709" fill="#58B6E6" transform="matrix(1.01445 0 0 1 1042 555.063)"/><path d="M8.88249 11.0988 6.65512 11.4763C5.72587 11.6334 5.10105 12.5123 5.25879 13.4434L6.65819 21.6931C6.79936 22.5272 7.52054 23.1146 8.33808 23.1146 8.4326 23.1146 8.52896 23.1073 8.62471 23.0907L9.87067 22.8795C9.69451 22.6107 9.59263 22.2909 9.59263 21.9448L9.59263 19.6081C8.8027 19.4044 8.25154 18.655 8.32212 17.8147L8.88249 11.0988" fill="#55667F" transform="matrix(1.01445 0 0 1 1042 555.063)"/><path d="M9.59263 19.6131 9.59263 21.9497C9.59263 22.2958 9.69513 22.6162 9.87067 22.8845L12.5424 22.4315 17.587 21.5753 21.5041 20.9124C21.7275 20.8731 21.9325 20.7952 22.1136 20.6835L18.9379 20.4171 13.8369 19.9918 9.8768 19.6609C9.78106 19.6523 9.68531 19.637 9.59263 19.6131" fill="#3AA8E6" transform="matrix(1.01445 0 0 1 1042 555.063)"/><path d="M10.7152 7.91151C9.83752 7.91151 9.09179 8.58543 9.01752 9.47724L8.88188 11.1007 19.5345 9.29434C19.6309 9.28022 19.7266 9.27285 19.8217 9.27285 20.6387 9.27285 21.3605 9.86146 21.5016 10.6925L21.7023 11.8746 24.3612 11.8746C24.7184 11.8746 25.0505 11.9863 25.3248 12.1717L25.4353 10.8496C25.5132 9.9124 24.8166 9.08504 23.8769 9.00832L10.8588 7.92194C10.8116 7.91396 10.7637 7.91151 10.7152 7.91151" fill="#90C859" transform="matrix(1.01445 0 0 1 1042 555.063)"/><path d="M24.3612 11.8709 21.7023 11.8709 22.901 18.9434C23.0195 19.6468 22.6862 20.3281 22.1136 20.6816L22.8973 20.7455C22.944 20.7504 22.9919 20.7516 23.0397 20.7516 23.9187 20.7516 24.6638 20.0789 24.7387 19.1871L25.3248 12.1668C25.0517 11.9814 24.7196 11.8709 24.3612 11.8709" fill="#63E0DF" transform="matrix(1.01445 0 0 1 1042 555.063)"/><path d="M19.8224 9.26856C19.7284 9.26856 19.6309 9.27715 19.5351 9.29249L8.88249 11.0988 8.32151 17.819C8.25154 18.6593 8.80209 19.4074 9.59201 19.6112L9.59201 13.5778C9.59201 12.6345 10.3555 11.8709 11.2977 11.8709L21.7023 11.8709 21.5022 10.6888C21.3611 9.85716 20.6393 9.26856 19.8224 9.26856" fill="#60A058" transform="matrix(1.01445 0 0 1 1042 555.063)"/><path d="M21.7023 11.8709 11.2983 11.8709C10.3562 11.8709 9.59263 12.6345 9.59263 13.5778L9.59263 19.6112C9.68531 19.6352 9.78106 19.6499 9.87926 19.6603L13.8393 19.9911 18.9397 20.4134 22.1166 20.6822C22.6911 20.3287 23.0244 19.6474 22.9029 18.944L21.7023 11.8709" fill="#41DADF" transform="matrix(1.01445 0 0 1 1042 555.063)"/><path d="M20.4662 17.8417C20.4662 20.0335 18.6894 21.8104 16.4976 21.8104 14.3057 21.8104 12.5289 20.0335 12.5289 17.8417 12.5289 15.6499 14.3057 13.8731 16.4976 13.8731 18.6894 13.8731 20.4662 15.6499 20.4662 17.8417Z" fill="#FFFFFF" transform="matrix(1.01445 0 0 1 1042 555.063)"/><path d="M19.03 17.8423C19.03 19.2413 17.8959 20.3754 16.4969 20.3754 15.098 20.3754 13.9639 19.2413 13.9639 17.8423 13.9639 16.4434 15.098 15.3093 16.4969 15.3093 17.8959 15.3093 19.03 16.4434 19.03 17.8423Z" fill="#6B7684" transform="matrix(1.01445 0 0 1 1042 555.063)"/><path d="M22.8912 13.6515 22.1547 13.6515C21.9399 13.6515 21.7336 13.7368 21.5833 13.889L21.5673 13.9056C21.0628 14.4138 21.4225 15.278 22.1381 15.278L22.2916 15.278C22.4161 15.278 22.8924 15.2694 23.0127 15.2541 23.9997 15.1209 23.8867 13.6515 22.8912 13.6515Z" fill="#FFFFFF" transform="matrix(1.01445 0 0 1 1042 555.063)"/><path d="M0 0.470762 32.4857 0.470762 32.4857 32.9577 8.61617e-07 32.9577Z" fill="#616571" transform="matrix(1.01445 0 0 1 1042 470.362)"/><path d="M9.11573 5.23854 12.9493 5.23854 13.387 3.10814 10.7152 3.10814C8.81191 3.10814 7.22163 3.58074 5.94437 4.52533 4.76225 5.39934 3.96496 6.82207 3.55067 8.78797L3.26035 10.4795 14.1996 10.482 14.5402 8.82541 8.32274 8.82419 9.11573 5.23854Z" fill="#F4F4F4" fill-opacity="0.2" transform="matrix(1.01445 0 0 1 1048.85 479.569)"/><path d="M14.9864 15.4124 15.3228 13.7307 0.913291 13.7307 0.572648 15.4124Z" fill="#F4F4F4" fill-opacity="0.5" transform="matrix(1.01445 0 0 1 1048.85 479.569)"/><path d="M15.6469 12.1588 17.1586 4.69658 14.7471 4.69535 15.6297 0.195179 10.679 0.193952C8.50318 0.193952 6.63302 0.762304 5.1164 1.88059 3.53041 3.05412 2.59871 4.92797 2.15925 7.4788L1.22754 12.1588 15.6469 12.1588ZM3.72314 7.77955C4.08465 5.6694 4.89053 4.13989 6.11807 3.23273 7.33641 2.32987 8.87083 1.87323 10.6778 1.87323L13.6398 1.87323 12.9481 5.23792 9.11511 5.23792 8.691 7.15105 14.8839 7.14736 14.199 10.4801 3.25974 10.4789 3.72314 7.77955Z" fill="#F4F4F4" transform="matrix(1.01445 0 0 1 1048.85 479.569)"/><path d="M0 0.120913 32.4857 0.120913 32.4857 32.6054 8.61617e-07 32.6054Z" fill="#F26A38" transform="matrix(1.01445 0 0 1 1042 386.276)"/><path d="M6.56244 8.68732C6.6588 8.691 6.75578 8.69836 6.85153 8.69836 9.15317 8.69836 11.4542 8.69836 13.7546 8.69836L14.0547 8.69836C13.6226 14.1345 13.1924 19.5388 12.7628 24.9455 12.7474 24.9467 12.7308 24.9541 12.7161 24.9565 12.4792 24.4054 12.2411 23.8524 12.0041 23.3 11.6936 22.5702 11.3793 21.8484 11.0798 21.118 11.008 20.9468 10.9233 20.875 10.7256 20.875 9.41832 20.8879 8.11037 20.8799 6.80242 20.8823 6.72202 20.8823 6.64223 20.8952 6.56244 20.9014L6.56244 8.68732ZM8.73089 14.6225C8.73089 15.9218 8.73396 17.22 8.7266 18.5199 8.72598 18.7151 8.7757 18.7906 8.98254 18.7894 9.49074 18.7753 10.0002 18.7765 10.5084 18.7832 10.687 18.7906 10.7447 18.728 10.7434 18.5494 10.7385 15.9538 10.7385 13.3501 10.7441 10.7527 10.7447 10.5538 10.6673 10.5102 10.4887 10.5127 9.99588 10.5225 9.50363 10.5256 9.01139 10.5114 8.78982 10.5041 8.72353 10.5716 8.72598 10.7956 8.73765 12.071 8.73089 13.3471 8.73089 14.6225Z" fill="#FFFFFF" transform="matrix(1.01445 0 0 1 1042 386.276)"/><path d="M13.4017 24.9473C14.0474 19.5394 14.6925 14.1296 15.3388 8.71125L25.9245 8.71125 25.9245 20.8799 25.6047 20.8799C22.5469 20.8799 19.4823 20.8823 16.4239 20.875 16.2128 20.8725 16.0931 20.9394 15.9795 21.1174 15.1865 22.3327 14.3825 23.5436 13.5834 24.7571 13.5398 24.824 13.4938 24.8903 13.4496 24.9572 13.4336 24.9535 13.4164 24.951 13.4017 24.9473M20.5012 18.7783C22.8206 18.7845 24.6932 16.9524 24.6994 14.6734 24.7055 12.3779 22.8568 10.5256 20.5515 10.5176 18.2161 10.5102 16.3441 12.3436 16.3404 14.6354 16.3374 16.9278 18.1916 18.7746 20.5012 18.7783" fill="#FFFFFF" transform="matrix(1.01445 0 0 1 1042 386.276)"/><path d="M22.7371 14.6679C22.7408 15.8752 21.7287 16.9051 20.5313 16.9131 19.3301 16.9241 18.2977 15.8795 18.3027 14.6642 18.3088 13.4532 19.3264 12.4283 20.5202 12.4295 21.7158 12.4319 22.7335 13.4594 22.7371 14.6679" fill="#FFFFFF" transform="matrix(1.01445 0 0 1 1042 386.276)"/><path d="M0 0.383607 32.4857 0.383607 32.4857 32.8693 8.61617e-07 32.8693Z" fill="#F3AD2D" transform="matrix(1.01445 0 0 1 1042 301.575)"/><path d="M14.2475 17.25C14.5544 16.9131 14.9122 16.6743 15.3167 16.5264L15.3167 13.6386C14.1173 13.8356 13.0893 14.3868 12.2343 15.297 11.1436 16.4589 10.5968 17.8546 10.5968 19.4866L13.398 19.4866C13.3986 18.6181 13.6816 17.873 14.2475 17.25" fill="#353535" transform="matrix(1.01445 0 0 1 1042 301.575)"/><path d="M15.3167 22.2879 10.5968 22.2879 10.5968 23.6897 10.5968 25.0897 11.7095 25.0897 13.7012 25.0897 15.3167 25.0897Z" fill="#353535" transform="matrix(1.01445 0 0 1 1042 301.575)"/><path d="M20.403 15.2307C19.2841 14.1566 17.9356 13.5981 16.3576 13.5545 16.26 13.5545 16.1643 13.5564 16.0691 13.5607L16.0691 16.3668C16.1931 16.3564 16.3196 16.3521 16.4509 16.3552 17.2408 16.3822 17.9154 16.6823 18.4751 17.2568 19.0373 17.8313 19.3227 18.5126 19.3319 19.3019L19.3319 19.3154 19.3319 19.3939 19.3172 19.4725C19.2743 20.2526 18.9686 20.9173 18.3978 21.4654 17.8264 22.0135 17.1475 22.2873 16.3582 22.2873L16.0698 22.2873 16.0698 25.0891 16.4515 25.0891C17.9853 25.0627 19.3031 24.5036 20.403 23.4123 21.5035 22.3192 22.0767 21.0069 22.1197 19.4725L22.1197 19.4602 22.1197 19.3946 22.1197 19.316 22.1197 19.2368C22.0945 17.6404 21.5207 16.3054 20.403 15.2307" fill="#353535" transform="matrix(1.01445 0 0 1 1042 301.575)"/><path d="M15.3167 8.34545 10.3654 8.34545 10.3654 17.0647C10.8852 15.5339 11.8544 14.3635 13.2771 13.5521L13.2771 11.2566 15.3167 11.2566 15.3167 8.34545Z" fill="#353535" transform="matrix(1.01445 0 0 1 1042 301.575)"/><path d="M16.0691 8.34606 21.3967 8.34606 21.3967 11.2572 16.0691 11.2572Z" fill="#353535" transform="matrix(1.01445 0 0 1 1042 301.575)"/><path d="M0 0.0331436 32.4869 0.0331436 32.4869 32.5182 1.87308e-07 32.5182Z" fill="#2CAAE2" transform="matrix(1.01445 0 0 1 1042 217.489)"/><path d="M16.2416 25.0658C11.3953 25.0658 7.45425 21.1242 7.45425 16.2778 7.45425 11.4321 11.3953 7.48985 16.2416 7.48985 21.0879 7.48985 25.0302 11.4327 25.0302 16.2778 25.0302 21.1242 21.0873 25.0658 16.2416 25.0658M16.2416 12.0367C13.9031 12.0367 12.0005 13.9381 12.0005 16.2778 12.0005 18.6175 13.9031 20.519 16.2416 20.519 18.5813 20.519 20.4846 18.6169 20.4846 16.2778 20.4846 13.9387 18.5807 12.0367 16.2416 12.0367" fill="#FFFFFF" transform="matrix(1.01445 0 0 1 1042 217.489)"/><path d="M0.021482 0 32.5084 0 32.5084 32.4851 0.0214821 32.4851Z" fill="#2EB8D7" transform="matrix(1.01445 0 0 1 1042 132.788)"/><path d="M0.0282335 3.77469 15.8322 3.77469 15.8322 19.5996 0.0282335 19.5996Z" fill="#333333" transform="matrix(1.01445 0 0 1 1048.85 138.926)"/><path d="M3.19345 0.609475 3.19345 10.1045 9.50302 10.1045 9.50302 16.4343 18.9981 16.4343 18.9981 0.609475Z" fill="#28889C" transform="matrix(1.01445 0 0 1 1048.85 138.926)"/><path d="M6.31693 3.77469 6.31693 6.93991 12.6676 6.93991 12.6676 13.2697 15.8322 13.2697 15.8322 3.77469Z" fill="#FFFFFF" transform="matrix(1.01445 0 0 1 1048.85 138.926)"/><path d="M0.0231803 0.0564283 32.4783 0.0564283 32.4783 33.1196 0.0231803 33.1196Z" fill="#205A23" transform="matrix(1.01445 0 0 1 1042 808.55)"/><path d="M11.6334 14.1227 12.1521 14.4279 12.1671 14.3975C12.893 13.3595 13.2785 12.1237 13.2785 10.8264 13.2936 9.16309 12.6858 7.60571 11.5592 6.44622 10.4328 5.27054 8.92133 4.61411 7.32075 4.61411 4.016 4.61411 1.33423 7.39173 1.33423 10.7954 1.33423 14.1991 4.01615 16.9617 7.32075 16.9617 7.89845 16.9617 8.44722 16.8854 8.96594 16.7173L8.99546 16.7018 8.87679 16.0913 8.83222 16.1068C8.32862 16.2594 7.80996 16.3512 7.29136 16.3512 4.32759 16.3512 1.91197 13.8633 1.91197 10.8108 1.91197 7.75833 4.32759 5.2704 7.29136 5.2704 10.2551 5.2704 12.6707 7.75833 12.6707 10.8108 12.6707 11.9859 12.3153 13.1158 11.6334 14.0922L11.6334 14.1227Z" fill="#FFFFFF" transform="matrix(1.01445 0 0 1 1049.41 815.959)"/><path d="M12.5576 5.47964C11.1705 4.0347 9.32636 3.24938 7.36064 3.24938 6.67486 3.24938 6.01945 3.34386 5.39506 3.53223L5.3647 3.54818 5.47126 4.12922 5.51709 4.11327C6.12667 3.94024 6.75173 3.84637 7.36136 3.84637 11.095 3.84637 14.1429 6.97179 14.1429 10.8361 14.1423 14.6997 11.0944 17.8097 7.36075 17.8097 3.6271 17.7938 0.579225 14.6523 0.579225 10.82 0.579225 9.35915 1.00605 7.97673 1.82873 6.78346L1.85909 6.75217 1.35607 6.45398 1.34059 6.48527C0.472665 7.74124 0 9.24942 0 10.836 0 14.9984 3.29201 18.3915 7.33045 18.3915 11.3844 18.3915 14.6757 14.9984 14.6757 10.836 14.706 8.80946 13.9441 6.90921 12.5577 5.47954L12.5576 5.47964Z" fill="#FFFFFF" transform="matrix(1.01445 0 0 1 1049.41 815.959)"/><path d="M6.41702 13.5174 7.03075 13.5174 8.51368 7.92848 7.89995 7.92848Z" fill="#FFFFFF" transform="matrix(1.01445 0 0 1 1049.41 815.959)"/><path d="M5.29579 8.25342 3.68974 10.5389 3.55795 10.723 5.26271 13.1398 5.29582 13.1925 5.78168 12.8157 4.2992 10.7229 5.78168 8.63016Z" fill="#FFFFFF" transform="matrix(1.01445 0 0 1 1049.41 815.959)"/><path d="M9.31721 8.25342 8.83135 8.6302 10.3138 10.723 8.87268 12.7634 8.83957 12.8157 9.31724 13.1925 10.9233 10.907 11.0551 10.7229Z" fill="#FFFFFF" transform="matrix(1.01445 0 0 1 1049.41 815.959)"/><path d="M11.4363 0C14.1547 1.4838 16.5497 3.80223 17.8533 6.56374L17.8533 0 11.4363 0Z" fill="#FFFFFF" transform="matrix(1.01445 0 0 1 1049.41 815.959)"/><path d="M0 0 32.5299 0 32.5299 33.1436 0 33.1436Z" fill="#7566F1" transform="matrix(1.01445 0 0 1 1042 639.149)"/><path d="M7.61076 9.50608C7.61076 10.568 8.47028 11.4309 9.52814 11.4309 10.586 11.4309 11.4455 10.568 11.4455 9.50608 11.4455 8.44411 10.586 7.58126 9.52814 7.58126 8.47028 7.58126 7.61076 8.44411 7.61076 9.50608Z" fill="#FFFFFF" transform="matrix(1.01445 0 0 1 1048.85 646.515)"/><path d="M1.84392 8.87185C2.15246 5.13284 5.19383 2.10181 8.9184 1.81419 10.4024 1.70357 11.879 2.01331 13.1793 2.72129 13.5392 2.92041 13.9873 2.83929 14.2518 2.52217 14.4281 2.32305 14.4942 2.05756 14.4502 1.79207 14.3987 1.52658 14.2371 1.30533 14.002 1.17259 12.6283 0.427737 11.0856 0.0368738 9.51345 0.0368738 9.32245 0.0368738 9.13144 0.0442486 8.94044 0.0516234 4.18004 0.339239 0.367315 4.15937 0.0808092 8.93822-0.0514241 11.1507 0.587704 13.3483 1.89534 15.133 2.04962 15.3469 2.29939 15.4796 2.56386 15.4944 2.82832 15.5018 3.0781 15.3985 3.25441 15.2068 3.52622 14.897 3.54826 14.4324 3.30583 14.1006 2.21123 12.5887 1.68965 10.7377 1.84392 8.87185Z" fill="#FFFFFF" fill-opacity="0.7" transform="matrix(1.01445 0 0 1 1048.85 646.515)"/><path d="M18.6155 6.87328C18.3731 6.03994 18.0278 5.25084 17.5797 4.52811 17.4475 4.30686 17.2197 4.15937 16.9626 4.1225 16.7055 4.08562 16.4484 4.16674 16.25 4.33636 15.9341 4.61661 15.868 5.09597 16.0957 5.4647 16.4998 6.12843 16.8083 6.85116 16.9993 7.61076 17.8221 10.8262 16.5145 14.1964 13.7302 16.0106 13.6641 16.0549 13.576 16.0401 13.5245 15.9811L11.2104 13.3852C11.1076 13.2672 10.9386 13.223 10.7844 13.2746 10.1967 13.4737 9.58692 13.5327 8.96983 13.4442 7.21406 13.2008 5.83296 11.7996 5.60522 10.0444 5.46564 8.93822 5.76684 7.85413 6.47209 6.99866 7.16998 6.15056 8.18377 5.62695 9.27102 5.56058L9.43264 5.5532C9.65303 5.5532 9.82934 5.56058 10.013 5.5827 11.7173 5.80394 13.1058 7.15353 13.3849 8.86447 13.5172 9.69045 13.3996 10.5164 13.0323 11.2539 12.8634 11.5931 12.9001 11.984 13.1131 12.2495 13.3041 12.4855 13.5833 12.5961 13.8845 12.5666 14.1857 12.5297 14.4428 12.3454 14.5824 12.0725 15.0746 11.0843 15.2729 9.97806 15.1481 8.87185 14.8983 6.57092 13.2233 4.61661 10.9901 3.99712 10.9313 3.975 10.8872 3.96025 10.8431 3.9455 10.6227 3.89388 10.4024 3.857 10.182 3.8275 10.035 3.81276 9.88811 3.80538 9.74853 3.79801L9.69711 3.79801C9.60161 3.79801 9.51345 3.79801 9.41795 3.79801 9.36653 3.79801 9.30776 3.79801 9.25633 3.80538L9.16083 3.81276C8.93309 3.8275 8.73474 3.84963 8.55109 3.87913 8.51436 3.8865 8.47028 3.89388 8.43355 3.90863 5.75949 4.43961 3.82742 6.79954 3.82742 9.5282 3.82742 11.5341 4.89998 13.4221 6.6337 14.4545 6.67044 14.4767 6.69982 14.5209 6.70717 14.5652 6.71451 14.6094 6.69982 14.661 6.67044 14.6905L4.56205 17.0505C4.48124 17.139 4.44451 17.2643 4.46655 17.3823 4.48124 17.5003 4.54736 17.5962 4.6502 17.6626 7.41976 19.344 11.1517 19.4546 14.002 17.9059 16.5659 16.5121 18.3878 13.9752 18.8653 11.0843 19.093 9.6757 19.0049 8.23762 18.6155 6.87328Z" fill="#FFFFFF" transform="matrix(1.01445 0 0 1 1048.85 646.515)"/><path d="M0 0 32.5299 0 32.5299 33.1436 0 33.1436 0 0ZM20.2544 25.1956 20.2544 7.97902 25.0616 7.97902 25.0616 25.1956 20.2544 25.1956ZM14.1167 14.1167 18.8542 14.1167 18.8542 18.9263 14.1169 18.9263 14.1169 14.1167 14.1167 14.1167ZM7.97902 7.97902 12.7862 7.97902 12.7862 18.9923 7.97908 18.9923 7.97908 7.97902 7.97902 7.97902ZM7.97902 20.2546 7.97902 25.0641 18.9172 25.0641 18.9172 20.2544 7.97902 20.2544 7.97902 20.2546Z" fill="#1A1E27" fill-rule="evenodd" transform="matrix(1.01445 0 0 1 1042 723.236)"/></g></g></g></g></svg>