<svg width="34" height="35" xmlns="http://www.w3.org/2000/svg" xmlns:xlink="http://www.w3.org/1999/xlink" overflow="hidden"><defs><clipPath id="clip0"><rect x="867" y="464" width="34" height="35"/></clipPath><clipPath id="clip1"><rect x="868" y="465" width="33" height="33"/></clipPath><clipPath id="clip2"><rect x="868" y="465" width="33" height="33"/></clipPath><clipPath id="clip3"><rect x="868" y="206" width="33" height="722"/></clipPath></defs><g clip-path="url(#clip0)" transform="translate(-867 -464)"><g clip-path="url(#clip1)"><g clip-path="url(#clip2)"><g clip-path="url(#clip3)"><path d="M0 0.208585 33 0.208585 33 33.165 0 33.165Z" fill="#6B7685" transform="matrix(1 0 0 1.00125 868 635.898)"/><path d="M24.7133 12.0425 11.4616 12.0425C10.5058 12.0425 9.73126 12.8171 9.73126 13.7741L9.73126 22.2663C9.73126 23.2233 10.5058 23.9966 11.4616 23.9966L15.4926 23.9966 18.0884 26.593 20.6835 23.9966 24.7151 23.9966C25.6709 23.9966 26.4455 23.2233 26.4455 22.2663L26.4455 13.7741C26.4455 12.8171 25.6709 12.0425 24.7133 12.0425" fill="#58B6E6" transform="matrix(1 0 0 1.00125 868 635.898)"/><path d="M9.01087 11.2592 6.7513 11.6422C5.80862 11.8015 5.17477 12.6932 5.33479 13.6377L6.75441 22.0066C6.89762 22.8528 7.62923 23.4487 8.45858 23.4487 8.55447 23.4487 8.65223 23.4412 8.74936 23.4244L10.0133 23.2102C9.83462 22.9375 9.73126 22.6131 9.73126 22.2619L9.73126 19.8915C8.92992 19.6848 8.37079 18.9246 8.4424 18.0722L9.01087 11.2592" fill="#55667F" transform="matrix(1 0 0 1.00125 868 635.898)"/><path d="M9.73126 19.8965 9.73126 22.2669C9.73126 22.6181 9.83525 22.9431 10.0133 23.2152L12.7237 22.7557 17.8412 21.8871 21.8149 21.2146C22.0415 21.1748 22.2495 21.0957 22.4332 20.9824L19.2116 20.7122 14.0368 20.2807 10.0195 19.9451C9.92241 19.9364 9.82528 19.9208 9.73126 19.8965" fill="#3AA8E6" transform="matrix(1 0 0 1.00125 868 635.898)"/><path d="M10.8701 8.02585C9.9797 8.02585 9.22319 8.70951 9.14785 9.61421L9.01025 11.2611 19.8168 9.42866C19.9146 9.41434 20.0117 9.40687 20.1082 9.40687 20.9369 9.40687 21.6692 10.004 21.8124 10.847L22.016 12.0462 24.7133 12.0462C25.0756 12.0462 25.4125 12.1596 25.6908 12.3476L25.8029 11.0064C25.882 10.0557 25.1753 9.21634 24.222 9.13851L11.0158 8.03643C10.9678 8.02834 10.9193 8.02585 10.8701 8.02585" fill="#90C859" transform="matrix(1 0 0 1.00125 868 635.898)"/><path d="M24.7133 12.0425 22.016 12.0425 23.232 19.2172C23.3522 19.9308 23.0141 20.6219 22.4332 20.9805L23.2283 21.0453C23.2756 21.0503 23.3242 21.0515 23.3727 21.0515 24.2643 21.0515 25.0202 20.3691 25.0962 19.4644L25.6908 12.3426C25.4137 12.1546 25.0769 12.0425 24.7133 12.0425" fill="#63E0DF" transform="matrix(1 0 0 1.00125 868 635.898)"/><path d="M20.1088 9.40251C20.0136 9.40251 19.9146 9.41123 19.8174 9.42679L9.01087 11.2592 8.44177 18.0765C8.37079 18.9289 8.9293 19.6879 9.73064 19.8946L9.73064 13.7741C9.73064 12.8171 10.5052 12.0425 11.461 12.0425L22.016 12.0425 21.813 10.8433C21.6698 9.99962 20.9376 9.40251 20.1088 9.40251" fill="#60A058" transform="matrix(1 0 0 1.00125 868 635.898)"/><path d="M22.016 12.0425 11.4616 12.0425C10.5058 12.0425 9.73126 12.8171 9.73126 13.7741L9.73126 19.8946C9.82528 19.9189 9.92241 19.9339 10.022 19.9445L14.0393 20.2801 19.2135 20.7084 22.4363 20.9811C23.0191 20.6225 23.3572 19.9314 23.2339 19.2178L22.016 12.0425" fill="#41DADF" transform="matrix(1 0 0 1.00125 868 635.898)"/><path d="M20.762 18.0996C20.762 20.3231 18.9595 22.1256 16.736 22.1256 14.5125 22.1256 12.71 20.3231 12.71 18.0996 12.71 15.8761 14.5125 14.0736 16.736 14.0736 18.9595 14.0736 20.762 15.8761 20.762 18.0996Z" fill="#FFFFFF" transform="matrix(1 0 0 1.00125 868 635.898)"/><path d="M19.305 18.1002C19.305 19.5194 18.1545 20.6698 16.7354 20.6698 15.3162 20.6698 14.1657 19.5194 14.1657 18.1002 14.1657 16.681 15.3162 15.5305 16.7354 15.5305 18.1545 15.5305 19.305 16.681 19.305 18.1002Z" fill="#6B7684" transform="matrix(1 0 0 1.00125 868 635.898)"/><path d="M23.222 13.8488 22.4749 13.8488C22.2569 13.8488 22.0477 13.9353 21.8952 14.0898L21.879 14.1066C21.3672 14.6221 21.7321 15.4988 22.4581 15.4988L22.6137 15.4988C22.7401 15.4988 23.2233 15.4901 23.3453 15.4745 24.3465 15.3394 24.232 13.8488 23.222 13.8488Z" fill="#FFFFFF" transform="matrix(1 0 0 1.00125 868 635.898)"/><path d="M0 0.477566 32.9552 0.477566 32.9552 33.434 8.74069e-07 33.434Z" fill="#616571" transform="matrix(1 0 0 1.00125 868 549.866)"/><path d="M9.24747 5.31425 13.1365 5.31425 13.5804 3.15306 10.8701 3.15306C8.93926 3.15306 7.326 3.63249 6.03028 4.59074 4.83108 5.47738 4.02226 6.92066 3.60198 8.91498L3.30747 10.631 14.4048 10.6335 14.7504 8.95296 8.44302 8.95172 9.24747 5.31425Z" fill="#F4F4F4" fill-opacity="0.2" transform="matrix(1 0 0 1.00125 874.849 559.217)"/><path d="M15.203 15.6352 15.5442 13.9291 0.926491 13.9291 0.580925 15.6352Z" fill="#F4F4F4" fill-opacity="0.5" transform="matrix(1 0 0 1.00125 874.849 559.217)"/><path d="M15.873 12.3345 17.4066 4.76445 14.9602 4.76321 15.8556 0.198 10.8333 0.196755C8.62608 0.196755 6.72889 0.773321 5.19034 1.90777 3.58143 3.09826 2.63626 4.99919 2.19045 7.58689L1.24528 12.3345 15.873 12.3345ZM3.77694 7.89198C4.14368 5.75134 4.96121 4.19972 6.20649 3.27945 7.44243 2.36355 8.99904 1.9003 10.8321 1.9003L13.837 1.9003 13.1352 5.31362 9.24685 5.31362 8.8166 7.2544 15.0991 7.25066 14.4042 10.6316 3.30685 10.6304 3.77694 7.89198Z" fill="#F4F4F4" transform="matrix(1 0 0 1.00125 874.849 559.217)"/><path d="M0 0.12266 32.9552 0.12266 32.9552 33.0766 8.74069e-07 33.0766Z" fill="#F26A38" transform="matrix(1 0 0 1.00125 868 464.457)"/><path d="M6.65728 8.81287C6.75504 8.8166 6.85342 8.82408 6.95055 8.82408 9.28545 8.82408 11.6197 8.82408 13.9534 8.82408L14.2579 8.82408C13.8195 14.3388 13.3831 19.8212 12.9472 25.306 12.9316 25.3073 12.9148 25.3147 12.8999 25.3172 12.6595 24.7581 12.418 24.1971 12.1776 23.6367 11.8626 22.8964 11.5438 22.1642 11.2399 21.4232 11.1671 21.2495 11.0812 21.1767 10.8807 21.1767 9.55443 21.1897 8.22758 21.1816 6.90074 21.1841 6.81917 21.1841 6.73823 21.1972 6.65728 21.2034L6.65728 8.81287ZM8.85708 14.8338C8.85708 16.1519 8.86019 17.4688 8.85272 18.7876 8.85209 18.9856 8.90253 19.0622 9.11236 19.0609 9.62791 19.0466 10.1447 19.0478 10.6602 19.0547 10.8414 19.0622 10.9 18.9987 10.8987 18.8175 10.8937 16.1843 10.8937 13.5431 10.8993 10.9081 10.9 10.7063 10.8215 10.6621 10.6403 10.6646 10.1403 10.6746 9.64098 10.6777 9.14162 10.6634 8.91685 10.6559 8.8496 10.7244 8.85209 10.9516 8.86392 12.2455 8.85708 13.54 8.85708 14.8338Z" fill="#FFFFFF" transform="matrix(1 0 0 1.00125 868 464.457)"/><path d="M13.5954 25.3079C14.2504 19.8218 14.9048 14.3338 15.5604 8.83715L26.2991 8.83715 26.2991 21.1816 25.9747 21.1816C22.8727 21.1816 19.7639 21.1841 16.6613 21.1767 16.4471 21.1742 16.3257 21.242 16.2105 21.4226 15.406 22.6554 14.5904 23.8839 13.7797 25.1149 13.7355 25.1827 13.6888 25.25 13.6439 25.3178 13.6278 25.3141 13.6103 25.3116 13.5954 25.3079M20.7975 19.0497C23.1504 19.0559 25.0501 17.1974 25.0563 14.8855 25.0626 12.5568 23.1872 10.6777 20.8485 10.6696 18.4794 10.6621 16.5803 12.5219 16.5766 14.8469 16.5735 17.1725 18.4545 19.046 20.7975 19.0497" fill="#FFFFFF" transform="matrix(1 0 0 1.00125 868 464.457)"/><path d="M23.0658 14.8799C23.0695 16.1046 22.0428 17.1494 20.828 17.1575 19.6095 17.1687 18.5622 16.109 18.5672 14.8762 18.5734 13.6477 19.6057 12.6079 20.8168 12.6091 22.0297 12.6116 23.062 13.6539 23.0658 14.8799" fill="#FFFFFF" transform="matrix(1 0 0 1.00125 868 464.457)"/><path d="M0 0.389151 32.9552 0.389151 32.9552 33.3443 8.74069e-07 33.3443Z" fill="#F3AD2D" transform="matrix(1 0 0 1.00125 868 378.425)"/><path d="M14.4534 17.4993C14.7647 17.1575 15.1277 16.9153 15.538 16.7652L15.538 13.8357C14.3214 14.0356 13.2785 14.5947 12.4111 15.5181 11.3047 16.6968 10.7499 18.1126 10.7499 19.7682L13.5916 19.7682C13.5923 18.8872 13.8793 18.1313 14.4534 17.4993" fill="#353535" transform="matrix(1 0 0 1.00125 868 378.425)"/><path d="M15.538 22.61 10.7499 22.61 10.7499 24.0321 10.7499 25.4523 11.8788 25.4523 13.8992 25.4523 15.538 25.4523Z" fill="#353535" transform="matrix(1 0 0 1.00125 868 378.425)"/><path d="M20.6978 15.4508C19.5628 14.3612 18.1948 13.7946 16.594 13.7504 16.495 13.7504 16.3979 13.7523 16.3014 13.7566L16.3014 16.6034C16.4272 16.5928 16.5554 16.5884 16.6887 16.5915 17.49 16.6189 18.1743 16.9234 18.7421 17.5062 19.3125 18.089 19.602 18.7801 19.6113 19.5808L19.6113 19.5945 19.6113 19.6742 19.5964 19.7539C19.5528 20.5453 19.2427 21.2196 18.6637 21.7756 18.084 22.3317 17.3954 22.6094 16.5946 22.6094L16.302 22.6094 16.302 25.4517 16.6893 25.4517C18.2453 25.4249 19.5821 24.8577 20.6978 23.7507 21.8142 22.6417 22.3958 21.3105 22.4394 19.7539L22.4394 19.7415 22.4394 19.6748 22.4394 19.5952 22.4394 19.5148C22.4138 17.8953 21.8317 16.5411 20.6978 15.4508" fill="#353535" transform="matrix(1 0 0 1.00125 868 378.425)"/><path d="M15.538 8.46606 10.5152 8.46606 10.5152 17.3113C11.0425 15.7584 12.0257 14.5711 13.469 13.7479L13.469 11.4192 15.538 11.4192 15.538 8.46606Z" fill="#353535" transform="matrix(1 0 0 1.00125 868 378.425)"/><path d="M16.3014 8.46668 21.7059 8.46668 21.7059 11.4199 16.3014 11.4199Z" fill="#353535" transform="matrix(1 0 0 1.00125 868 378.425)"/><path d="M0 0.0336226 32.9564 0.0336226 32.9564 32.9882 1.90015e-07 32.9882Z" fill="#2CAAE2" transform="matrix(1 0 0 1.00125 868 293.016)"/><path d="M16.4763 25.4281C11.56 25.4281 7.56198 21.4295 7.56198 16.5131 7.56198 11.5973 11.56 7.59809 16.4763 7.59809 21.3927 7.59809 25.3919 11.5979 25.3919 16.5131 25.3919 21.4295 21.3921 25.4281 16.4763 25.4281M16.4763 12.2106C14.1041 12.2106 12.1739 14.1396 12.1739 16.5131 12.1739 18.8866 14.1041 20.8155 16.4763 20.8155 18.8498 20.8155 20.7807 18.886 20.7807 16.5131 20.7807 14.1402 18.8492 12.2106 16.4763 12.2106" fill="#FFFFFF" transform="matrix(1 0 0 1.00125 868 293.016)"/><path d="M0.0217925 0 32.9782 0 32.9782 32.9545 0.0217925 32.9545Z" fill="#2EB8D7" transform="matrix(1 0 0 1.00125 868 206.984)"/><path d="M0.0286415 3.82925 16.061 3.82925 16.061 19.8828 0.0286416 19.8828Z" fill="#333333" transform="matrix(1 0 0 1.00125 874.849 213.218)"/><path d="M3.2396 0.618283 3.2396 10.2505 9.64036 10.2505 9.64036 16.6718 19.2726 16.6718 19.2726 0.618283Z" fill="#28889C" transform="matrix(1 0 0 1.00125 874.849 213.218)"/><path d="M6.40823 3.82925 6.40823 7.04021 12.8507 7.04021 12.8507 13.4615 16.061 13.4615 16.061 3.82925Z" fill="#FFFFFF" transform="matrix(1 0 0 1.00125 874.849 213.218)"/><path d="M0.0235153 0.0572439 32.9476 0.0572439 32.9476 33.5983 0.0235153 33.5983Z" fill="#205A23" transform="matrix(1 0 0 1.00125 868 893.371)"/><path d="M11.8015 14.3268 12.3277 14.6364 12.3429 14.6056C13.0793 13.5526 13.4704 12.2989 13.4704 10.9829 13.4857 9.29552 12.8691 7.71563 11.7263 6.53938 10.5835 5.34671 9.05027 4.6808 7.42655 4.6808 4.07404 4.6808 1.35352 7.49856 1.35352 10.9514 1.35352 14.4043 4.07419 17.2069 7.42655 17.2069 8.0126 17.2069 8.5693 17.1295 9.09552 16.9589L9.12547 16.9432 9.00509 16.3239 8.95987 16.3396C8.44899 16.4944 7.92283 16.5876 7.39674 16.5876 4.39013 16.5876 1.9396 14.0637 1.9396 10.9671 1.9396 7.87046 4.39013 5.34657 7.39674 5.34657 10.4033 5.34657 12.8539 7.87046 12.8539 10.9671 12.8539 12.1591 12.4933 13.3053 11.8016 14.2959L11.8015 14.3268Z" fill="#FFFFFF" transform="matrix(1 0 0 1.00125 875.412 900.896)"/><path d="M12.7391 5.55883C11.332 4.09301 9.46115 3.29634 7.46701 3.29634 6.77133 3.29634 6.10644 3.39219 5.47303 3.58328L5.44223 3.59946 5.55033 4.1889 5.59683 4.17272C6.21521 3.99719 6.84931 3.90196 7.46775 3.90196 11.2554 3.90196 14.3473 7.07255 14.3473 10.9927 14.3467 14.9122 11.2547 18.0671 7.46713 18.0671 3.67952 18.0509 0.587596 14.864 0.587596 10.9764 0.587596 9.49441 1.02059 8.09202 1.85516 6.8815L1.88596 6.84975 1.37567 6.54726 1.35997 6.579C0.479496 7.85311 0 9.3831 0 10.9926 0 15.2152 3.33959 18.6573 7.4364 18.6573 11.549 18.6573 14.8878 15.2152 14.8878 10.9926 14.9186 8.93678 14.1456 7.00907 12.7392 5.55874L12.7391 5.55883Z" fill="#FFFFFF" transform="matrix(1 0 0 1.00125 875.412 900.896)"/><path d="M6.50977 13.7128 7.13236 13.7128 8.63672 8.04306 8.01412 8.04306Z" fill="#FFFFFF" transform="matrix(1 0 0 1.00125 875.412 900.896)"/><path d="M5.37233 8.3727 3.74307 10.6912 3.60938 10.8779 5.33877 13.3297 5.37236 13.3831 5.86523 13.0009 4.36134 10.8779 5.86523 8.75488Z" fill="#FFFFFF" transform="matrix(1 0 0 1.00125 875.412 900.896)"/><path d="M9.45186 8.3727 8.95898 8.75492 10.4629 10.8779 9.00091 12.9479 8.96732 13.0009 9.45189 13.3831 11.0811 11.0646 11.2148 10.8779Z" fill="#FFFFFF" transform="matrix(1 0 0 1.00125 875.412 900.896)"/><path d="M11.6016 0C14.3592 1.50524 16.7889 3.85718 18.1113 6.6586L18.1113 0 11.6016 0Z" fill="#FFFFFF" transform="matrix(1 0 0 1.00125 875.412 900.896)"/><path d="M0 0 33 0 33 33.6226 0 33.6226Z" fill="#7566F1" transform="matrix(1 0 0 1.00125 868 721.307)"/><path d="M7.72075 9.64346C7.72075 10.7208 8.59269 11.5961 9.66585 11.5961 10.739 11.5961 11.6109 10.7208 11.6109 9.64346 11.6109 8.56615 10.739 7.69083 9.66585 7.69083 8.59269 7.69083 7.72075 8.56615 7.72075 9.64346Z" fill="#FFFFFF" transform="matrix(1 0 0 1.00125 874.849 728.788)"/><path d="M1.87057 9.00007C2.18357 5.20702 5.26889 2.13219 9.04729 1.84041 10.5527 1.72819 12.0506 2.04241 13.3697 2.76062 13.7349 2.96262 14.1895 2.88032 14.4578 2.55862 14.6366 2.35663 14.7037 2.0873 14.659 1.81797 14.6068 1.54864 14.4429 1.3242 14.2044 1.18953 12.8108 0.433918 11.2458 0.0374068 9.65094 0.0374068 9.45718 0.0374068 9.26342 0.0448881 9.06965 0.0523695 4.24045 0.344142 0.372623 4.21948 0.0819771 9.0674-0.0521673 11.3118 0.596197 13.5412 1.92274 15.3517 2.07924 15.5687 2.33262 15.7034 2.60091 15.7183 2.8692 15.7258 3.12258 15.6211 3.30144 15.4265 3.57718 15.1123 3.59954 14.641 3.35361 14.3043 2.24319 12.7707 1.71407 10.8928 1.87057 9.00007Z" fill="#FFFFFF" fill-opacity="0.7" transform="matrix(1 0 0 1.00125 874.849 728.788)"/><path d="M18.8845 6.97262C18.6386 6.12723 18.2884 5.32672 17.8337 4.59355 17.6996 4.36911 17.4686 4.21948 17.2077 4.18208 16.9469 4.14467 16.6861 4.22696 16.4849 4.39903 16.1644 4.68333 16.0973 5.16961 16.3284 5.54368 16.7382 6.217 17.0512 6.95018 17.245 7.72075 18.0797 10.9826 16.7531 14.4016 13.9287 16.242 13.8616 16.2869 13.7722 16.2719 13.72 16.2121L11.3725 13.5787C11.2681 13.459 11.0967 13.4141 10.9402 13.4664 10.344 13.6684 9.72547 13.7283 9.09946 13.6385 7.31832 13.3916 5.91726 11.9702 5.68623 10.1896 5.54463 9.0674 5.85019 7.96764 6.56562 7.0998 7.27361 6.23945 8.30205 5.70827 9.40501 5.64094L9.56897 5.63346C9.79254 5.63346 9.9714 5.64094 10.1577 5.66338 11.8867 5.88782 13.2952 7.25691 13.5784 8.99258 13.7125 9.8305 13.5933 10.6684 13.2207 11.4165 13.0493 11.7607 13.0865 12.1572 13.3027 12.4265 13.4964 12.6659 13.7796 12.7781 14.0852 12.7482 14.3907 12.7108 14.6515 12.5238 14.7931 12.247 15.2925 11.2445 15.4937 10.1223 15.367 9.00007 15.1136 6.66588 13.4144 4.68333 11.1489 4.05489 11.0893 4.03245 11.0446 4.01749 10.9998 4.00252 10.7763 3.95015 10.5527 3.91275 10.3291 3.88282 10.1801 3.86786 10.031 3.86038 9.88942 3.8529L9.83725 3.8529C9.74037 3.8529 9.65094 3.8529 9.55406 3.8529 9.50189 3.8529 9.44227 3.8529 9.39011 3.86038L9.29323 3.86786C9.0622 3.88282 8.86098 3.90527 8.67467 3.93519 8.63741 3.94267 8.59269 3.95015 8.55543 3.96512 5.84273 4.50377 3.88273 6.89781 3.88273 9.66591 3.88273 11.7008 4.97079 13.6161 6.72958 14.6634 6.76684 14.6859 6.79665 14.7308 6.8041 14.7757 6.81155 14.8206 6.79665 14.8729 6.76684 14.9029L4.62798 17.2969C4.546 17.3867 4.50874 17.5138 4.5311 17.6335 4.546 17.7532 4.61308 17.8505 4.71741 17.9178 7.52699 19.6236 11.3128 19.7358 14.2044 18.1647 16.8053 16.7507 18.6535 14.1772 19.1379 11.2445 19.369 9.81553 19.2795 8.35667 18.8845 6.97262Z" fill="#FFFFFF" transform="matrix(1 0 0 1.00125 874.849 728.788)"/><path d="M0 0 33 0 33 33.6226 0 33.6226 0 0ZM20.5472 25.5598 20.5472 8.09434 25.4238 8.09434 25.4238 25.5598 20.5472 25.5598ZM14.3208 14.3208 19.1267 14.3208 19.1267 19.1998 14.3209 19.1998 14.3209 14.3208 14.3208 14.3208ZM8.09434 8.09434 12.971 8.09434 12.971 19.2667 8.0944 19.2667 8.0944 8.09434 8.09434 8.09434ZM8.09434 20.5473 8.09434 25.4264 19.1906 25.4264 19.1906 20.5472 8.09434 20.5472 8.09434 20.5473Z" fill="#1A1E27" fill-rule="evenodd" transform="matrix(1 0 0 1.00125 868 806.716)"/></g></g></g></g></svg>