<svg width="34" height="35" xmlns="http://www.w3.org/2000/svg" xmlns:xlink="http://www.w3.org/1999/xlink" overflow="hidden"><defs><clipPath id="clip0"><rect x="537" y="214" width="34" height="35"/></clipPath><clipPath id="clip1"><rect x="537" y="215" width="34" height="33"/></clipPath><clipPath id="clip2"><rect x="537" y="214" width="34" height="34"/></clipPath><clipPath id="clip3"><rect x="537" y="-473" width="34" height="721"/></clipPath></defs><g clip-path="url(#clip0)" transform="translate(-537 -214)"><g clip-path="url(#clip1)"><g clip-path="url(#clip2)"><g clip-path="url(#clip3)"><path d="M0 0.208846 33.0414 0.208846 33.0414 33.2066 0 33.2066Z" fill="#6B7685" transform="matrix(1.02901 0 0 1 537 -43.1381)"/><path d="M24.7442 12.0576 11.476 12.0576C10.519 12.0576 9.74346 12.8331 9.74346 13.7913L9.74346 22.2942C9.74346 23.2524 10.519 24.0267 11.476 24.0267L15.512 24.0267 18.111 26.6264 20.7095 24.0267 24.7461 24.0267C25.7031 24.0267 26.4786 23.2524 26.4786 22.2942L26.4786 13.7913C26.4786 12.8331 25.7031 12.0576 24.7442 12.0576" fill="#58B6E6" transform="matrix(1.02901 0 0 1 537 -43.1381)"/><path d="M9.02216 11.2733 6.75976 11.6567C5.8159 11.8163 5.18126 12.7091 5.34148 13.6548L6.76288 22.0342C6.90627 22.8815 7.63879 23.4781 8.46919 23.4781 8.56519 23.4781 8.66307 23.4706 8.76033 23.4538L10.0259 23.2393C9.84695 22.9662 9.74346 22.6414 9.74346 22.2898L9.74346 19.9165C8.94112 19.7095 8.38128 18.9483 8.45298 18.0948L9.02216 11.2733" fill="#55667F" transform="matrix(1.02901 0 0 1 537 -43.1381)"/><path d="M9.74346 19.9214 9.74346 22.2948C9.74346 22.6464 9.84757 22.9719 10.0259 23.2443L12.7396 22.7842 17.8635 21.9145 21.8422 21.2412C22.0691 21.2013 22.2774 21.1222 22.4613 21.0087L19.2357 20.7381 14.0544 20.3061 10.0321 19.9701C9.93485 19.9613 9.8376 19.9458 9.74346 19.9214" fill="#3AA8E6" transform="matrix(1.02901 0 0 1 537 -43.1381)"/><path d="M10.8837 8.03591C9.99221 8.03591 9.23475 8.72043 9.15932 9.62626L9.02154 11.2752 19.8417 9.44048C19.9395 9.42614 20.0368 9.41866 20.1334 9.41866 20.9632 9.41866 21.6963 10.0165 21.8397 10.8606L22.0436 12.0613 24.7442 12.0613C25.1071 12.0613 25.4443 12.1748 25.723 12.3631L25.8352 11.0202C25.9144 10.0683 25.2068 9.22789 24.2524 9.14996L11.0296 8.04651C10.9816 8.0384 10.933 8.03591 10.8837 8.03591" fill="#90C859" transform="matrix(1.02901 0 0 1 537 -43.1381)"/><path d="M24.7442 12.0576 22.0436 12.0576 23.2611 19.2413C23.3814 19.9557 23.0429 20.6477 22.4613 21.0068L23.2574 21.0717C23.3048 21.0766 23.3534 21.0779 23.402 21.0779 24.2948 21.0779 25.0516 20.3946 25.1276 19.4888L25.723 12.3581C25.4456 12.1698 25.1083 12.0576 24.7442 12.0576" fill="#63E0DF" transform="matrix(1.02901 0 0 1 537 -43.1381)"/><path d="M20.134 9.4143C20.0387 9.4143 19.9395 9.42302 19.8423 9.43861L9.02216 11.2733 8.45235 18.0992C8.38128 18.9527 8.94049 19.7126 9.74284 19.9196L9.74284 13.7913C9.74284 12.8331 10.5184 12.0576 11.4753 12.0576L22.0436 12.0576 21.8403 10.8569C21.697 10.0122 20.9638 9.4143 20.134 9.4143" fill="#60A058" transform="matrix(1.02901 0 0 1 537 -43.1381)"/><path d="M22.0436 12.0576 11.476 12.0576C10.519 12.0576 9.74346 12.8331 9.74346 13.7913L9.74346 19.9196C9.8376 19.9439 9.93485 19.9589 10.0346 19.9695L14.0569 20.3055 19.2376 20.7344 22.4644 21.0074C23.0479 20.6484 23.3864 19.9564 23.263 19.2419L22.0436 12.0576" fill="#41DADF" transform="matrix(1.02901 0 0 1 537 -43.1381)"/><path d="M20.788 18.1223C20.788 20.3485 18.9832 22.1533 16.757 22.1533 14.5307 22.1533 12.7259 20.3485 12.7259 18.1223 12.7259 15.896 14.5307 14.0912 16.757 14.0912 18.9832 14.0912 20.788 15.896 20.788 18.1223Z" fill="#FFFFFF" transform="matrix(1.02901 0 0 1 537 -43.1381)"/><path d="M19.3292 18.1229C19.3292 19.5438 18.1773 20.6957 16.7563 20.6957 15.3354 20.6957 14.1835 19.5438 14.1835 18.1229 14.1835 16.7019 15.3354 15.55 16.7563 15.55 18.1773 15.55 19.3292 16.7019 19.3292 18.1229Z" fill="#6B7684" transform="matrix(1.02901 0 0 1 537 -43.1381)"/><path d="M23.2511 13.8662 22.503 13.8662C22.2848 13.8662 22.0754 13.9528 21.9226 14.1074L21.9064 14.1242C21.394 14.6404 21.7593 15.5182 22.4862 15.5182L22.6421 15.5182C22.7686 15.5182 23.2524 15.5095 23.3746 15.4939 24.377 15.3586 24.2623 13.8662 23.2511 13.8662Z" fill="#FFFFFF" transform="matrix(1.02901 0 0 1 537 -43.1381)"/><path d="M0 0.478165 32.9965 0.478165 32.9965 33.4759 8.75165e-07 33.4759Z" fill="#616571" transform="matrix(1.02901 0 0 1 537 -129.17)"/><path d="M9.25906 5.32091 13.153 5.32091 13.5975 3.15701 10.8837 3.15701C8.95047 3.15701 7.33518 3.63704 6.03784 4.59649 4.83713 5.48424 4.02731 6.92934 3.6065 8.92616L3.31162 10.6443 14.4229 10.6468 14.7689 8.96418 8.4536 8.96294 9.25906 5.32091Z" fill="#F4F4F4" fill-opacity="0.2" transform="matrix(1.02901 0 0 1 544.057 -119.819)"/><path d="M15.2221 15.6547 15.5637 13.9466 0.927652 13.9466 0.581653 15.6547Z" fill="#F4F4F4" fill-opacity="0.5" transform="matrix(1.02901 0 0 1 544.057 -119.819)"/><path d="M15.8929 12.35 17.4284 4.77042 14.979 4.76918 15.8754 0.198248 10.8469 0.197001C8.63689 0.197001 6.73732 0.77429 5.19685 1.91016 3.58592 3.10215 2.63957 5.00546 2.1932 7.5964L1.24684 12.35 15.8929 12.35ZM3.78168 7.90187C4.14887 5.75855 4.96743 4.20498 6.21427 3.28356 7.45176 2.36651 9.01032 1.90268 10.8457 1.90268L13.8543 1.90268 13.1517 5.32028 9.25844 5.32028 8.82765 7.26349 15.118 7.25975 14.4222 10.6449 3.31099 10.6437 3.78168 7.90187Z" fill="#F4F4F4" transform="matrix(1.02901 0 0 1 544.057 -119.819)"/><path d="M0 0.122814 32.9965 0.122814 32.9965 33.118 8.75165e-07 33.118Z" fill="#F26A38" transform="matrix(1.02901 0 0 1 537 -214.579)"/><path d="M6.66563 8.82391C6.7635 8.82765 6.86201 8.83514 6.95926 8.83514 9.29709 8.83514 11.6343 8.83514 13.9709 8.83514L14.2757 8.83514C13.8369 14.3568 13.3998 19.846 12.9634 25.3377 12.9479 25.339 12.931 25.3465 12.9161 25.349 12.6754 24.7891 12.4335 24.2274 12.1929 23.6663 11.8774 22.9251 11.5582 22.192 11.254 21.4501 11.1811 21.2761 11.095 21.2032 10.8943 21.2032 9.56641 21.2163 8.2379 21.2082 6.90939 21.2107 6.82772 21.2107 6.74667 21.2238 6.66563 21.23L6.66563 8.82391ZM8.86818 14.8524C8.86818 16.1722 8.87129 17.4907 8.86381 18.8111 8.86319 19.0094 8.91369 19.0861 9.12378 19.0848 9.63997 19.0705 10.1574 19.0717 10.6736 19.0786 10.855 19.0861 10.9136 19.0225 10.9124 18.8411 10.9074 16.2046 10.9074 13.5601 10.913 10.9217 10.9136 10.7197 10.8351 10.6755 10.6537 10.678 10.153 10.6879 9.65307 10.6911 9.15308 10.6767 8.92803 10.6692 8.8607 10.7378 8.86319 10.9654 8.87504 12.2608 8.86818 13.5569 8.86818 14.8524Z" fill="#FFFFFF" transform="matrix(1.02901 0 0 1 537 -214.579)"/><path d="M13.6124 25.3396C14.2683 19.8466 14.9235 14.3518 15.5799 8.84823L26.3321 8.84823 26.3321 21.2082 26.0073 21.2082C22.9014 21.2082 19.7887 21.2107 16.6821 21.2032 16.4677 21.2007 16.3461 21.2687 16.2308 21.4495 15.4253 22.6838 14.6086 23.9138 13.797 25.1463 13.7527 25.2143 13.7059 25.2816 13.661 25.3496 13.6448 25.3458 13.6274 25.3433 13.6124 25.3396M20.8235 19.0736C23.1795 19.0798 25.0815 17.2189 25.0877 14.9041 25.094 12.5726 23.2162 10.6911 20.8747 10.683 18.5025 10.6755 16.6011 12.5376 16.5974 14.8655 16.5942 17.194 18.4776 19.0699 20.8235 19.0736" fill="#FFFFFF" transform="matrix(1.02901 0 0 1 537 -214.579)"/><path d="M23.0947 14.8985C23.0984 16.1248 22.0704 17.1709 20.8541 17.179 19.6341 17.1902 18.5855 16.1292 18.5904 14.8948 18.5967 13.6648 19.6303 12.6237 20.8429 12.6249 22.0573 12.6274 23.0909 13.671 23.0947 14.8985" fill="#FFFFFF" transform="matrix(1.02901 0 0 1 537 -214.579)"/><path d="M0 0.389639 32.9965 0.389639 32.9965 33.3861 8.75165e-07 33.3861Z" fill="#F3AD2D" transform="matrix(1.02901 0 0 1 537 -300.611)"/><path d="M14.4715 17.5213C14.7832 17.179 15.1467 16.9365 15.5575 16.7863L15.5575 13.8531C14.3393 14.0532 13.2951 14.613 12.4267 15.5375 11.3188 16.7177 10.7634 18.1353 10.7634 19.793L13.6087 19.793C13.6093 18.9109 13.8967 18.154 14.4715 17.5213" fill="#353535" transform="matrix(1.02901 0 0 1 537 -300.611)"/><path d="M15.5575 22.6383 10.7634 22.6383 10.7634 24.0622 10.7634 25.4842 11.8936 25.4842 13.9166 25.4842 15.5575 25.4842Z" fill="#353535" transform="matrix(1.02901 0 0 1 537 -300.611)"/><path d="M20.7238 15.4702C19.5873 14.3792 18.2176 13.8119 16.6148 13.7677 16.5157 13.7677 16.4184 13.7695 16.3218 13.7739L16.3218 16.6242C16.4477 16.6136 16.5762 16.6092 16.7096 16.6123 17.5119 16.6398 18.1971 16.9446 18.7656 17.5281 19.3367 18.1117 19.6266 18.8037 19.6359 19.6054L19.6359 19.6191 19.6359 19.6989 19.621 19.7787C19.5773 20.5711 19.2669 21.2462 18.6871 21.8029 18.1067 22.3597 17.4172 22.6377 16.6154 22.6377L16.3224 22.6377 16.3224 25.4836 16.7102 25.4836C18.2681 25.4568 19.6066 24.8889 20.7238 23.7804 21.8416 22.6701 22.4239 21.3372 22.4675 19.7787L22.4675 19.7662 22.4675 19.6995 22.4675 19.6197 22.4675 19.5393C22.4419 17.9178 21.859 16.5618 20.7238 15.4702" fill="#353535" transform="matrix(1.02901 0 0 1 537 -300.611)"/><path d="M15.5575 8.47667 10.5284 8.47667 10.5284 17.333C11.0564 15.7782 12.0408 14.5893 13.4859 13.7652L13.4859 11.4336 15.5575 11.4336 15.5575 8.47667Z" fill="#353535" transform="matrix(1.02901 0 0 1 537 -300.611)"/><path d="M16.3218 8.47729 21.7331 8.47729 21.7331 11.4342 16.3218 11.4342Z" fill="#353535" transform="matrix(1.02901 0 0 1 537 -300.611)"/><path d="M0 0.0336648 32.9977 0.0336648 32.9977 33.0295 1.90253e-07 33.0295Z" fill="#2CAAE2" transform="matrix(1.02901 0 0 1 537 -386.02)"/><path d="M16.497 25.4599C11.5745 25.4599 7.57146 21.4563 7.57146 16.5338 7.57146 11.6119 11.5745 7.60762 16.497 7.60762 21.4195 7.60762 25.4238 11.6125 25.4238 16.5338 25.4238 21.4563 21.4189 25.4599 16.497 25.4599M16.497 12.2259C14.1218 12.2259 12.1891 14.1573 12.1891 16.5338 12.1891 18.9103 14.1218 20.8416 16.497 20.8416 18.8735 20.8416 20.8067 18.9096 20.8067 16.5338 20.8067 14.1579 18.8729 12.2259 16.497 12.2259" fill="#FFFFFF" transform="matrix(1.02901 0 0 1 537 -386.02)"/><path d="M0.0218198 0 33.0195 0 33.0195 32.9959 0.0218199 32.9959Z" fill="#2EB8D7" transform="matrix(1.02901 0 0 1 537 -472.052)"/><path d="M0.0286774 3.83405 16.0812 3.83405 16.0812 19.9077 0.0286775 19.9077Z" fill="#333333" transform="matrix(1.02901 0 0 1 544.057 -465.818)"/><path d="M3.24366 0.619058 3.24366 10.2634 9.65244 10.2634 9.65244 16.6927 19.2968 16.6927 19.2968 0.619058Z" fill="#28889C" transform="matrix(1.02901 0 0 1 544.057 -465.818)"/><path d="M6.41626 3.83405 6.41626 7.04903 12.8668 7.04903 12.8668 13.4784 16.0812 13.4784 16.0812 3.83405Z" fill="#FFFFFF" transform="matrix(1.02901 0 0 1 544.057 -465.818)"/><path d="M0.0235448 0.0573156 32.9889 0.0573156 32.9889 33.6404 0.0235448 33.6404Z" fill="#205A23" transform="matrix(1.02901 0 0 1 537 214.335)"/><path d="M11.8163 14.3447 12.3431 14.6548 12.3584 14.6239C13.0957 13.5696 13.4873 12.3143 13.4873 10.9966 13.5026 9.30717 12.8852 7.7253 11.741 6.54758 10.5968 5.35341 9.06161 4.68667 7.43586 4.68667 4.07915 4.68667 1.35521 7.50796 1.35521 10.9652 1.35521 14.4224 4.0793 17.2284 7.43586 17.2284 8.02264 17.2284 8.58004 17.1509 9.10692 16.9802L9.13691 16.9644 9.01637 16.3443 8.9711 16.3601C8.45958 16.5151 7.93276 16.6084 7.40601 16.6084 4.39564 16.6084 1.94203 14.0813 1.94203 10.9808 1.94203 7.88032 4.39564 5.35327 7.40601 5.35327 10.4164 5.35327 12.87 7.88032 12.87 10.9808 12.87 12.1744 12.509 13.322 11.8164 14.3138L11.8163 14.3447Z" fill="#FFFFFF" transform="matrix(1.02901 0 0 1 544.637 221.86)"/><path d="M12.755 5.5658C11.3462 4.09815 9.47301 3.30047 7.47637 3.30047 6.77982 3.30047 6.1141 3.39644 5.47989 3.58777L5.44905 3.60397 5.55729 4.19415 5.60384 4.17795C6.223 4.0022 6.85789 3.90685 7.47711 3.90685 11.2695 3.90685 14.3653 7.08141 14.3653 11.0065 14.3647 14.9309 11.2689 18.0898 7.47649 18.0898 3.68414 18.0736 0.588333 14.8827 0.588333 10.9902 0.588333 9.50632 1.02187 8.10216 1.85749 6.89012L1.88833 6.85834 1.37739 6.55546 1.36167 6.58725C0.480097 7.86296 0 9.39486 0 11.0064 0 15.2342 3.34378 18.6807 7.44572 18.6807 11.5634 18.6807 14.9064 15.2342 14.9064 11.0064 14.9373 8.94798 14.1633 7.01785 12.7552 5.5657L12.755 5.5658Z" fill="#FFFFFF" transform="matrix(1.02901 0 0 1 544.637 221.86)"/><path d="M6.51793 13.73 7.1413 13.73 8.64754 8.05315 8.02417 8.05315Z" fill="#FFFFFF" transform="matrix(1.02901 0 0 1 544.637 221.86)"/><path d="M5.37906 8.38319 3.74776 10.7046 3.6139 10.8916 5.34546 13.3464 5.37909 13.3999 5.87259 13.0172 4.3668 10.8915 5.87259 8.76586Z" fill="#FFFFFF" transform="matrix(1.02901 0 0 1 544.637 221.86)"/><path d="M9.46371 8.38319 8.97021 8.7659 10.476 10.8916 9.01219 12.9641 8.97856 13.0172 9.46374 13.3999 11.095 11.0785 11.2289 10.8915Z" fill="#FFFFFF" transform="matrix(1.02901 0 0 1 544.637 221.86)"/><path d="M11.6161 0C14.3772 1.50713 16.8099 3.86202 18.134 6.66695L18.134 0 11.6161 0Z" fill="#FFFFFF" transform="matrix(1.02901 0 0 1 544.637 221.86)"/><path d="M0 0 33.0414 0 33.0414 33.6648 0 33.6648Z" fill="#7566F1" transform="matrix(1.02901 0 0 1 537 42.2708)"/><path d="M7.73043 9.65555C7.73043 10.7342 8.60346 11.6106 9.67796 11.6106 10.7525 11.6106 11.6255 10.7342 11.6255 9.65555 11.6255 8.57688 10.7525 7.70047 9.67796 7.70047 8.60346 7.70047 7.73043 8.57688 7.73043 9.65555Z" fill="#FFFFFF" transform="matrix(1.02901 0 0 1 544.057 49.7518)"/><path d="M1.87291 9.01135C2.18631 5.21355 5.2755 2.13486 9.05863 1.84272 10.5659 1.73036 12.0657 2.04497 13.3865 2.76408 13.7521 2.96633 14.2073 2.88393 14.4759 2.56183 14.655 2.35958 14.7221 2.08991 14.6774 1.82025 14.6251 1.55058 14.461 1.32586 14.2222 1.19103 12.8268 0.434462 11.2599 0.0374536 9.66304 0.0374536 9.46903 0.0374536 9.27503 0.0449444 9.08102 0.0524351 4.24577 0.344574 0.37309 4.22477 0.0820799 9.07876-0.0522326 11.326 0.596945 13.5582 1.92515 15.371 2.08184 15.5882 2.33555 15.723 2.60417 15.738 2.8728 15.7455 3.1265 15.6406 3.30558 15.4459 3.58167 15.1313 3.60405 14.6594 3.35781 14.3223 2.246 12.7867 1.71622 10.9065 1.87291 9.01135Z" fill="#FFFFFF" fill-opacity="0.7" transform="matrix(1.02901 0 0 1 544.057 49.7518)"/><path d="M18.9082 6.98136C18.662 6.13491 18.3113 5.3334 17.8561 4.59931 17.7218 4.37459 17.4905 4.22477 17.2293 4.18732 16.9681 4.14986 16.707 4.23226 16.5055 4.40455 16.1847 4.6892 16.1175 5.17609 16.3488 5.55063 16.7592 6.2248 17.0726 6.95889 17.2666 7.73043 18.1023 10.9964 16.7741 14.4197 13.9461 16.2624 13.879 16.3073 13.7894 16.2923 13.7372 16.2324L11.3867 13.5957C11.2823 13.4758 11.1106 13.4309 10.9539 13.4833 10.357 13.6856 9.73766 13.7455 9.11087 13.6556 7.32749 13.4084 5.92467 11.9852 5.69336 10.2024 5.55158 9.07876 5.85752 7.97763 6.57385 7.1087 7.28272 6.24727 8.31245 5.71543 9.4168 5.64801L9.58096 5.64052C9.80482 5.64052 9.9839 5.64801 10.1704 5.67048 11.9016 5.8952 13.3119 7.26601 13.5954 9.00386 13.7297 9.84282 13.6103 10.6818 13.2372 11.4309 13.0656 11.7754 13.1029 12.1724 13.3193 12.4421 13.5133 12.6818 13.7969 12.7942 14.1028 12.7642 14.4087 12.7267 14.6699 12.5395 14.8117 12.2623 15.3116 11.2586 15.5131 10.135 15.3862 9.01135 15.1325 6.67424 13.4313 4.6892 11.1629 4.05998 11.1032 4.0375 11.0584 4.02252 11.0136 4.00754 10.7898 3.9551 10.5659 3.91765 10.3421 3.88769 10.1928 3.87271 10.0436 3.86522 9.90182 3.85773L9.84959 3.85773C9.75258 3.85773 9.66304 3.85773 9.56604 3.85773 9.5138 3.85773 9.45411 3.85773 9.40188 3.86522L9.30487 3.87271C9.07356 3.88769 8.87209 3.91016 8.68554 3.94012 8.64823 3.94761 8.60346 3.9551 8.56615 3.97009 5.85006 4.50942 3.8876 6.90645 3.8876 9.67802 3.8876 11.7155 4.97703 13.6331 6.73801 14.6818 6.77532 14.7043 6.80517 14.7492 6.81263 14.7942 6.82009 14.8391 6.80517 14.8916 6.77532 14.9215L4.63378 17.3186C4.5517 17.4085 4.51439 17.5358 4.53678 17.6556 4.5517 17.7755 4.61886 17.8729 4.72332 17.9403 7.53643 19.6482 11.327 19.7605 14.2222 18.1875 16.8264 16.7717 18.6769 14.1949 19.1619 11.2586 19.3932 9.82784 19.3037 8.36714 18.9082 6.98136Z" fill="#FFFFFF" transform="matrix(1.02901 0 0 1 544.057 49.7518)"/><path d="M0 0 33.0414 0 33.0414 33.6648 0 33.6648 0 0ZM20.5729 25.5918 20.5729 8.10449 25.4556 8.10449 25.4556 25.5918 20.5729 25.5918ZM14.3387 14.3387 19.1506 14.3387 19.1506 19.2239 14.3389 19.2239 14.3389 14.3387 14.3387 14.3387ZM8.10449 8.10449 12.9872 8.10449 12.9872 19.2909 8.10454 19.2909 8.10454 8.10449 8.10449 8.10449ZM8.10449 20.5731 8.10449 25.4582 19.2146 25.4582 19.2146 20.5729 8.10449 20.5729 8.10449 20.5731Z" fill="#1A1E27" fill-rule="evenodd" transform="matrix(1.02901 0 0 1 537 127.68)"/></g></g></g></g></svg>